<?xml version="1.0" encoding="iso-8859-1"?>
<!-- Uploaded to: SVG Repo, www.svgrepo.com, Generator: SVG Repo Mixer Tools -->
<svg height="800px" width="800px" version="1.1" id="Layer_1" xmlns="http://www.w3.org/2000/svg" xmlns:xlink="http://www.w3.org/1999/xlink" 
	 viewBox="0 0 511.986 511.986" xml:space="preserve">
<path style="fill:#FFCE54;" d="M181.198,108.748c-11.671-1.297-29.202,2.952-38.952,9.468L17.75,201.214
	C7.969,207.714,0,222.651,0,234.369v255.993c0,11.734,9.594,21.343,21.328,21.343h469.315c11.734,0,21.343-9.608,21.343-21.343
	V234.369c0-11.719-7.984-26.655-17.749-33.155l-85.903-57.264c-9.766-6.531-27.297-12.922-38.953-14.203L181.198,108.748z"/>
<path style="fill:#F6BB42;" d="M369.396,129.747l-94.106-10.5l-94.092-10.499c-11.655-1.297-29.171,2.952-38.952,9.452
	l-62.248,41.515L17.75,201.214c-5.938,3.953-11.219,11.031-14.438,18.593l252.29,165.902l252.869-166.386
	c-3.25-7.406-8.421-14.234-14.233-18.109l-42.952-28.64l-42.982-28.655C398.553,137.419,381.053,131.028,369.396,129.747z"/>
<polygon style="fill:#E6E9ED;" points="447.972,259.119 255.509,385.709 63.983,259.713 63.983,0.281 362.646,0.281 447.972,85.639 
	"/>
<path style="fill:#CCD1D9;" d="M265.072,304.117c-10.251-16.702,0.608-28.983,1.89-30.327l-0.094,0.078l-15.172-14.999
	c-8.405,8.515-20.233,31.265-4.797,56.42c11.642,18.969-0.187,41.827-0.312,42.046l9.405,5.03l9.375,5.078
	C266.102,366.084,283.227,333.695,265.072,304.117z"/>
<path style="fill:#967ADC;" d="M266.649,255.713h-0.016v-12.828h-21.327v12.828c-5.891,0-10.656,4.781-10.656,10.655
	c0,5.891,4.781,10.672,10.672,10.672h21.327c5.891,0,10.672-4.781,10.672-10.672C277.321,260.478,272.54,255.713,266.649,255.713z"
	/>
<polygon style="fill:#CCD1D9;" points="362.646,85.639 447.972,85.639 362.646,0.281 "/>
<path style="fill:#AC92EB;" d="M341.319,159.715c0,53.015-38.202,95.998-85.326,95.998c-47.139,0-85.341-42.983-85.341-95.998
	c0-53.029,38.202-95.997,85.341-95.997C303.117,63.718,341.319,106.685,341.319,159.715z"/>
<path style="opacity:0.2;fill:#FFFFFF;enable-background:new    ;" d="M255.977,95.717c-29.437,0-53.311,28.64-53.326,63.967
	c0,0.016,0,0.016,0,0.031c0,5.891,4.781,10.656,10.671,10.656c5.891,0,10.672-4.766,10.672-10.656l0,0l0,0
	c0-11.953,3.891-23.468,10.672-31.608c5.953-7.125,13.515-11.062,21.312-11.062l0,0c5.892,0,10.672-4.781,10.672-10.671
	C266.649,100.482,261.869,95.717,255.977,95.717z"/>
<g>
	<path style="fill:#434A54;" d="M95.998,426.364H53.327c-5.891,0-10.672-4.766-10.672-10.655c0-5.891,4.781-10.672,10.672-10.672
		h42.671c5.874,0,10.655,4.781,10.655,10.672C106.653,421.598,101.872,426.364,95.998,426.364z"/>
	<path style="fill:#434A54;" d="M181.323,469.035H53.327c-5.891,0-10.672-4.781-10.672-10.672s4.781-10.656,10.672-10.656h127.996
		c5.891,0,10.672,4.766,10.672,10.656S187.214,469.035,181.323,469.035z"/>
</g>
<path style="fill:#DA4453;" d="M279.352,375.037c-5.859-6.547-14.358-10.672-23.844-10.672c-9.468,0-17.983,4.125-23.843,10.672
	l-8.156,10.672v10.656c0,17.688,14.328,31.999,31.999,31.999c17.672,0,31.999-14.312,31.999-31.999v-10.656L279.352,375.037z"/>
<circle style="fill:#ED5564;" cx="255.513" cy="385.713" r="31.999"/>
</svg>